HIERARCHY
ROOT Hips
{
	OFFSET 0.000000 0.000000 0.000000
	CHANNELS 6 Xposition Yposition Zposition Xrotation Yrotation Zrotation
	JOINT LeftUpLeg_virtual
	{
		OFFSET 0.000000 0.000000 0.000000
		CHANNELS 3 Xrotation Yrotation Zrotation
		JOINT LeftUpLeg
		{
			OFFSET 11.394100 -6.187798 -0.413800
			CHANNELS 3 Xrotation Yrotation Zrotation
			JOINT LeftLeg
			{
				OFFSET 0.430247 -32.302673 3.732800
				CHANNELS 3 Xrotation Yrotation Zrotation
				JOINT LeftFoot
				{
					OFFSET -0.430247 -48.264931 -6.423300
					CHANNELS 3 Xrotation Yrotation Zrotation
					JOINT LeftToeBase
					{
						OFFSET 4.230900 -16.068199 23.438400
						CHANNELS 3 Xrotation Yrotation Zrotation
						JOINT LeftToe_End
						{
							OFFSET 4.510700 0.695400 19.974600
							CHANNELS 3 Xrotation Yrotation Zrotation
							End Site
							{
								OFFSET 0 0 0
							}
						}
					}
				}
			}
		}
	}
	JOINT RightUpLeg_virtual
	{
		OFFSET 0.000000 0.000000 0.000000
		CHANNELS 3 Xrotation Yrotation Zrotation
		JOINT RightUpLeg
		{
			OFFSET -11.333700 -6.187798 -0.413800
			CHANNELS 3 Xrotation Yrotation Zrotation
			JOINT RightLeg
			{
				OFFSET -0.430392 -32.302628 3.733000
				CHANNELS 3 Xrotation Yrotation Zrotation
				JOINT RightFoot
				{
					OFFSET 0.430392 -48.264973 -6.423500
					CHANNELS 3 Xrotation Yrotation Zrotation
					JOINT RightToeBase
					{
						OFFSET -4.230900 -16.068199 23.438400
						CHANNELS 3 Xrotation Yrotation Zrotation
						JOINT RightToe_End
						{
							OFFSET -4.510700 0.695400 19.974600
							CHANNELS 3 Xrotation Yrotation Zrotation
							End Site
							{
								OFFSET 0 0 0
							}
						}
					}
				}
			}
		}
	}
	JOINT Spine_virtual
	{
		OFFSET 0.000000 0.000000 0.000000
		CHANNELS 3 Xrotation Yrotation Zrotation
		JOINT Spine
		{
			OFFSET -0.002400 12.777504 0.315300
			CHANNELS 3 Xrotation Yrotation Zrotation
			JOINT Spine1
			{
				OFFSET -0.002067 5.816869 0.032633
				CHANNELS 3 Xrotation Yrotation Zrotation
				JOINT Spine1_split
				{
					OFFSET -0.002067 5.816869 0.032633
					CHANNELS 3 Xrotation Yrotation Zrotation
					JOINT Spine2
					{
						OFFSET -0.002067 5.816869 0.032633
						CHANNELS 3 Xrotation Yrotation Zrotation
						JOINT Neck_virtual
						{
							OFFSET 0.000000 0.000000 0.000000
							CHANNELS 3 Xrotation Yrotation Zrotation
							JOINT Neck
							{
								OFFSET -0.003700 21.199493 -0.826900
								CHANNELS 3 Xrotation Yrotation Zrotation
								JOINT Head
								{
									OFFSET 0.000000 20.442200 4.834800
									CHANNELS 3 Xrotation Yrotation Zrotation
									JOINT HeadTop_End
									{
										OFFSET 0.000000 34.668396 4.968400
										CHANNELS 3 Xrotation Yrotation Zrotation
										End Site
										{
											OFFSET 0 0 0
										}
									}
								}
							}
						}
						JOINT LeftShoulder_virtual
						{
							OFFSET 0.000000 0.000000 0.000000
							CHANNELS 3 Xrotation Yrotation Zrotation
							JOINT LeftShoulder
							{
								OFFSET 3.288150 8.794197 -1.372250
								CHANNELS 3 Xrotation Yrotation Zrotation
								JOINT LeftShoulder_split
								{
									OFFSET 3.288150 8.794197 -1.372250
									CHANNELS 3 Xrotation Yrotation Zrotation
									JOINT LeftArm
									{
										OFFSET 11.953299 -2.279007 -0.146200
										CHANNELS 3 Xrotation Yrotation Zrotation
										JOINT LeftForeArm
										{
											OFFSET 18.448900 0.000000 0.000000
											CHANNELS 3 Xrotation Yrotation Zrotation
											JOINT LeftHand
											{
												OFFSET 29.527798 0.000000 0.000000
												CHANNELS 3 Xrotation Yrotation Zrotation
												End Site
												{
													OFFSET 0 0 0
												}
											}
										}
									}
								}
							}
						}
						JOINT RightShoulder_virtual
						{
							OFFSET 0.000000 0.000000 0.000000
							CHANNELS 3 Xrotation Yrotation Zrotation
							JOINT RightShoulder
							{
								OFFSET -3.249400 8.794197 -1.372250
								CHANNELS 3 Xrotation Yrotation Zrotation
								JOINT RightShoulder_split
								{
									OFFSET -3.249400 8.794197 -1.372250
									CHANNELS 3 Xrotation Yrotation Zrotation
									JOINT RightArm
									{
										OFFSET -11.953299 -2.279007 -0.146200
										CHANNELS 3 Xrotation Yrotation Zrotation
										JOINT RightForeArm
										{
											OFFSET -18.448900 0.000000 0.000000
											CHANNELS 3 Xrotation Yrotation Zrotation
											JOINT RightHand
											{
												OFFSET -29.527802 0.000000 0.000000
												CHANNELS 3 Xrotation Yrotation Zrotation
												End Site
												{
													OFFSET 0 0 0
												}
											}
										}
									}
								}
							}
						}
					}
				}
			}
		}
	}
}
MOTION
Frames: 4
Frame Time: 0.03333333
-1.499399 98.884468 -2.452175 0.000000 0.000000 0.000000 -0.053883 -6.081784 0.793896 -20.992757 -7.672182 12.629959 31.067904 2.536215 0.723341 -1.688854 8.246330 -10.249172 -1.867063 0.491819 -2.561244 0.000000 0.000000 0.000000 0.397943 -5.783014 0.844920 -15.852674 -3.539669 -11.596515 26.617370 1.671559 -1.863047 -8.275555 -12.317447 11.921750 1.697123 -1.289277 0.363894 0.000000 0.000000 0.000000 0.337967 -3.601073 -0.059092 2.772863 -0.660778 0.467165 2.445891 -0.095822 0.284202 1.100238 -0.501243 -0.233459 0.000000 0.000000 0.000000 2.087138 -0.049733 0.183841 -1.382393 0.485535 1.164914 1.474108 1.202319 1.597070 0.000000 0.000000 0.000000 1.633605 0.078924 0.105816 0.508974 9.935971 -11.514427 -1.167691 -1.289691 -0.564591 14.669453 -8.533533 -50.705671 1.506399 -34.763115 1.527302 0.000000 0.000000 0.000000 1.959394 -0.037555 0.226423 1.736675 -7.918167 12.330717 1.384088 1.942423 -2.836078 6.032508 20.567400 61.172486 2.486736 24.117567 1.025380 0.000000 0.000000 0.000000 
-1.700706 99.022919 -2.227947 0.000000 0.000000 0.000000 -0.007763 -5.336579 1.092212 -20.928477 -5.832014 12.016875 30.060421 2.231375 0.617434 -1.613035 7.191796 -10.077736 -2.384786 0.368661 -1.927870 0.000000 0.000000 0.000000 0.294511 -5.488260 1.055082 -16.420417 -3.875083 -12.010397 26.330984 1.579749 -1.727558 -8.307250 -11.858992 11.207237 2.583328 -1.251354 0.710542 0.000000 0.000000 0.000000 0.498576 -3.330276 0.462367 2.863853 -0.842045 0.373282 2.273316 -0.158194 0.232321 0.886382 -0.649245 -0.225368 0.000000 0.000000 0.000000 2.036593 -0.106620 0.156415 -1.088365 0.555493 0.891213 1.832650 1.356929 1.704975 0.000000 0.000000 0.000000 1.596492 -0.003965 0.061245 0.550128 9.806421 -11.437346 -1.204449 -1.170961 -0.566373 14.370158 -9.357458 -51.084084 1.562580 -35.340181 1.591056 0.000000 0.000000 0.000000 1.935383 -0.108151 0.235165 1.800086 -7.922135 12.334955 1.197160 1.869491 -3.044573 5.828240 20.743795 61.011764 2.444779 25.095377 1.042890 0.000000 0.000000 0.000000 
-2.007026 99.371773 -2.216503 0.000000 0.000000 0.000000 0.040686 -4.748596 1.801810 -19.822292 -3.277861 10.756138 27.487241 2.100690 0.434820 -1.316226 5.602286 -9.724001 -3.998683 0.170835 -0.893664 0.000000 0.000000 0.000000 0.364268 -5.175350 1.651432 -18.174544 -4.262557 -12.518745 27.457115 1.369580 -1.540447 -8.142566 -11.046916 9.628787 1.718715 -1.098236 0.825080 0.000000 0.000000 0.000000 0.650382 -3.276290 1.229781 3.028413 -1.251436 0.097547 1.995045 -0.283968 0.098726 0.821537 -0.520645 -0.161458 0.000000 0.000000 0.000000 1.786244 -0.204592 0.060021 -0.806051 0.542676 0.647480 2.686497 1.489343 1.908520 0.000000 0.000000 0.000000 1.388677 -0.131516 -0.011533 0.550632 9.468113 -11.297602 -1.099660 -0.881194 -0.537145 14.318130 -10.510074 -51.501283 1.292555 -36.000964 1.391836 0.000000 0.000000 0.000000 1.738750 -0.245474 0.187538 1.833702 -7.743095 12.363167 1.130934 1.735637 -3.186909 5.737408 21.101475 60.750339 2.302361 26.342464 1.068165 0.000000 0.000000 0.000000 
-2.286243 99.680603 -2.283195 0.000000 0.000000 0.000000 0.062787 -4.507437 2.649919 -17.850042 -0.284198 9.138755 23.902092 2.580704 0.160381 -1.401018 4.093793 -8.582486 -4.271380 -0.007329 -0.306242 0.000000 0.000000 0.000000 0.507610 -4.959376 2.410355 -20.946768 -4.663403 -12.876616 30.118395 0.963143 -1.334228 -7.825927 -10.117563 7.094845 -1.056941 -0.959293 0.822863 0.000000 0.000000 0.000000 0.769003 -3.749978 1.987151 3.289172 -1.822969 -0.301816 1.650134 -0.455718 -0.061594 0.867030 -0.309484 -0.029214 0.000000 0.000000 0.000000 1.412909 -0.323967 -0.066409 -0.582264 0.461241 0.485600 3.962724 1.663620 2.122706 0.000000 0.000000 0.000000 1.062563 -0.280413 -0.083772 0.508138 8.908586 -11.127328 -0.976857 -0.467748 -0.460223 14.522247 -11.808268 -51.897116 0.792334 -36.535474 0.999723 0.000000 0.000000 0.000000 1.419908 -0.415799 0.109454 1.828270 -7.366127 12.494226 1.122436 1.571779 -3.214244 5.787747 21.593483 60.369590 2.118367 27.519341 1.062006 0.000000 0.000000 0.000000 
